<svg xmlns="http://www.w3.org/2000/svg" width="180.197" height="43.339" viewBox="0 0 180.197 43.339"><defs><style>.a{fill:#81c147;}</style></defs><g transform="translate(-3.447 -7)"><g transform="translate(3.447 7)"><path class="a" d="M3.571,43.084c0,.1-.009.206-.009.311,0,3.6,1.7,6.537,5.292,6.537H49.947c3.6,0,5.292-2.942,5.292-6.537,0-.1-.007-.208-.01-.311Z" transform="translate(-3.452 -6.594)"/><rect class="a" width="50.432" height="2.49" rx="1.245" transform="translate(0.732 32.129)"/><rect class="a" width="50.432" height="2.49" rx="1.245" transform="translate(0.732 20.345)"/><rect class="a" width="50.432" height="5.604" rx="2.802" transform="translate(0.732 24.685)"/><path class="a" d="M55.179,19.5c-2.631-8.057-12.8-14.256-25.485-14.256S6.407,11.18,3.63,19.152a3.068,3.068,0,0,0,2.646,4.163l46.205.3A3.062,3.062,0,0,0,55.179,19.5ZM35.868,9.293a.934.934,0,1,1,.934-.933A.934.934,0,0,1,35.868,9.293Zm17.284,11.7a.934.934,0,0,1-1.278-.331,24.085,24.085,0,0,0-13.7-10.675.934.934,0,0,1,.55-1.785A25.954,25.954,0,0,1,53.484,19.714.934.934,0,0,1,53.152,20.993Z" transform="translate(-3.447 -5.246)"/></g><path class="a" d="M28.254,1.224a4.273,4.273,0,0,1-1.275,3.145,4.273,4.273,0,0,1-3.145,1.275H21.352V-8.568h-1.7a2.376,2.376,0,0,1-.578-.068v11.8a2.334,2.334,0,0,1-.612,1.751,2.435,2.435,0,0,1-1.768.595H4.964A2.435,2.435,0,0,1,3.2,4.913a2.334,2.334,0,0,1-.612-1.751V-25.5h6.9v10.71h2.652V-25.5h6.936v11.458h2.278V-25.6h6.9ZM12.138.2V-9.384H9.486V.2Zm46.92,1.02a4.273,4.273,0,0,1-1.275,3.145,4.273,4.273,0,0,1-3.145,1.275H52.156V-9.282h-2.72A16.562,16.562,0,0,1,45.22.816Q40.9,5.44,33.184,5.44V.1a8.383,8.383,0,0,0,6.63-2.924q2.55-2.924,2.55-8.908v-8.5l-7.174-.034a2.108,2.108,0,0,1-1.445-.561,1.966,1.966,0,0,1-.629-1.547V-25.5H49.572v10.744h2.584V-25.6h6.9ZM66.47-20.2a2.074,2.074,0,0,1-1.445-.578,2.02,2.02,0,0,1-.629-1.564V-25.5H81.464v6.256a19.443,19.443,0,0,1-.629,5.168,26.159,26.159,0,0,1-1.207,3.57h-6.6a22.313,22.313,0,0,0,1.19-4.284,24.88,24.88,0,0,0,.374-4.216V-20.2ZM69.5-4.08H65.688A2.621,2.621,0,0,1,63.9-4.658a2.091,2.091,0,0,1-.663-1.666V-9.316H79.73a13.431,13.431,0,0,0,2.142-.17,7.173,7.173,0,0,0,1.326-.34V-25.6h6.9V1.224a4.273,4.273,0,0,1-1.275,3.145A4.273,4.273,0,0,1,85.68,5.644H83.2V-4.59q-.476.136-1.428.306a11.8,11.8,0,0,1-2.244.2H76.4V3.162a2.108,2.108,0,0,1-.833,1.7,2.95,2.95,0,0,1-1.921.68H69.5ZM95.4-7.31A2.362,2.362,0,0,1,93.772-7.8a2.039,2.039,0,0,1-.544-1.581v-3.162H104.55v-2.788a18.456,18.456,0,0,1-2.006.816,25.217,25.217,0,0,1-8.092,1.292v-4.9a15.62,15.62,0,0,0,6.766-1.53,5.945,5.945,0,0,0,1.564-.986H96.9a2.156,2.156,0,0,1-1.479-.442,1.832,1.832,0,0,1-.493-1.428v-3.128h25.84v3.128a1.832,1.832,0,0,1-.493,1.428,2.156,2.156,0,0,1-1.479.442h-5.814a5.944,5.944,0,0,0,1.564.986,15.62,15.62,0,0,0,6.766,1.53v4.9a25.217,25.217,0,0,1-8.092-1.292q-.952-.34-1.768-.68v2.652H122.4v3.162a2.039,2.039,0,0,1-.544,1.581,2.362,2.362,0,0,1-1.632.493Zm25.33,10.676a2.111,2.111,0,0,1-.782,1.683,2.8,2.8,0,0,1-1.87.663h-4.25V-1.02H96.8a2.286,2.286,0,0,1-1.5-.425,1.836,1.836,0,0,1-.51-1.479V-6.29h25.942ZM107.882-17.816a8.962,8.962,0,0,1-3.2,2.414h6.358A8.613,8.613,0,0,1,107.882-17.816Z" transform="translate(61.244 40.254)"/></g></svg>