<svg xmlns="http://www.w3.org/2000/svg" width="117.395" height="98.037" viewBox="0 0 117.395 98.037"><defs><style>.a{fill:#81c147;}</style></defs><g transform="translate(-58.447 -43)"><g transform="translate(58.447 43)"><path class="a" d="M3.581,43.084c-.006.233-.019.466-.019.7,0,8.133,3.836,14.788,11.971,14.788h92.955c8.133,0,11.971-6.656,11.971-14.788,0-.237-.015-.471-.022-.7Z" transform="translate(-3.313 39.46)"/><rect class="a" width="114.082" height="5.634" rx="1.305" transform="translate(1.656 72.678)"/><rect class="a" width="114.082" height="5.634" rx="1.305" transform="translate(1.656 46.023)"/><rect class="a" width="114.082" height="12.676" rx="2.936" transform="translate(1.656 55.84)"/><path class="a" d="M120.47,37.493C114.518,19.268,91.519,5.246,62.821,5.246,34.155,5.246,10.142,18.67,3.862,36.7c-1.58,4.534,1.552,9.389,5.987,9.417l104.521.674C118.786,46.822,121.958,42.046,120.47,37.493ZM76.787,14.4A2.112,2.112,0,1,1,78.9,12.288,2.112,2.112,0,0,1,76.787,14.4Zm39.1,26.468a2.112,2.112,0,0,1-2.891-.749C103.866,24.6,89.663,18.329,82.007,15.971a2.112,2.112,0,0,1,1.244-4.037c8.241,2.537,23.534,9.3,33.385,26.041A2.114,2.114,0,0,1,115.885,40.868Z" transform="translate(-3.447 -5.246)"/></g></g></svg>