<svg xmlns="http://www.w3.org/2000/svg" width="15" height="21.204" viewBox="0 0 15 21.204"><defs><style>.a{fill:#81c147;}</style></defs><g transform="translate(-861 -84.5)"><path class="a" d="M873.041,133h-9.082A2.98,2.98,0,0,0,861,136v6.393a2.98,2.98,0,0,0,2.959,3h9.082a2.98,2.98,0,0,0,2.959-3V136A2.98,2.98,0,0,0,873.041,133Zm-3.245,9.858h-2.778l.251-3.558a1.664,1.664,0,1,1,2.289.169Z" transform="translate(0 -39.689)"/><path class="a" d="M874.4,84.5h-2.857a5.08,5.08,0,0,0-5.039,5.121v3.517h1.547v-2.22c0-2.766,1.716-5.009,3.834-5.009h2.174c2.117,0,3.834,2.243,3.834,5.009v2.22h1.547V89.621A5.08,5.08,0,0,0,874.4,84.5Z" transform="translate(-4.467)"/></g></svg>